<svg width="102" height="91" viewBox="0 0 102 91" fill="none" xmlns="http://www.w3.org/2000/svg">
<path d="M69.5427 0.47876H32.1534C27.575 0.47876 23.3423 2.92166 21.053 6.88771L2.3595 39.2669C0.0702699 43.2329 0.0702699 48.1188 2.3595 52.0848L21.0553 84.464C23.3445 88.43 27.575 90.8729 32.1557 90.8729H69.545C74.1234 90.8729 78.3562 88.43 80.6454 84.464L99.3412 52.0848C101.63 48.1188 101.63 43.2329 99.3412 39.2669L80.6431 6.88771C78.3539 2.92166 74.1235 0.47876 69.5427 0.47876Z" fill="#F4BFC7"/>
<path d="M68.8696 44.7221L75.5339 38.4556" stroke="#000C34" stroke-width="2.87454" stroke-miterlimit="10" stroke-linecap="round"/>
<path d="M40.1963 43.1653L49.299 47.4003" stroke="#000C34" stroke-width="2.87454" stroke-miterlimit="10" stroke-linecap="round"/>
<path d="M75.5695 51.8725C76.7228 51.8725 77.6577 50.9376 77.6577 49.7844C77.6577 48.6312 76.7228 47.6963 75.5695 47.6963C74.4163 47.6963 73.4814 48.6312 73.4814 49.7844C73.4814 50.9376 74.4163 51.8725 75.5695 51.8725Z" fill="#000C34"/>
<path d="M42.5534 55.7571C43.7067 55.7571 44.6415 54.8223 44.6415 53.669C44.6415 52.5158 43.7067 51.5809 42.5534 51.5809C41.4002 51.5809 40.4653 52.5158 40.4653 53.669C40.4653 54.8223 41.4002 55.7571 42.5534 55.7571Z" fill="#000C34"/>
<path d="M52.3472 61.1468C52.3472 61.1468 53.8025 56.5367 59.8386 55.8655C65.2984 55.2576 68.2407 59.2033 68.2407 59.2033" stroke="#000C34" stroke-width="2.87454" stroke-miterlimit="10" stroke-linecap="round"/>
</svg>
