<svg width="77" height="76" viewBox="0 0 77 76" fill="none" xmlns="http://www.w3.org/2000/svg">
<path d="M66.0354 0H10.6618C4.96601 0 0.348633 4.61738 0.348633 10.3132V65.6868C0.348633 71.3826 4.96601 76 10.6618 76H66.0354C71.7313 76 76.3486 71.3826 76.3486 65.6868V10.3132C76.3486 4.61738 71.7313 0 66.0354 0Z" fill="#D9D9D9"/>
<path d="M31.5088 39.1267H45.1888" stroke="#000C34" stroke-width="2.4168" stroke-miterlimit="10" stroke-linecap="round"/>
<path d="M51.5422 36.9682C52.5118 36.9682 53.2978 36.1822 53.2978 35.2126C53.2978 34.243 52.5118 33.457 51.5422 33.457C50.5726 33.457 49.7866 34.243 49.7866 35.2126C49.7866 36.1822 50.5726 36.9682 51.5422 36.9682Z" fill="#000C34"/>
<path d="M25.531 36.9682C26.5006 36.9682 27.2866 36.1822 27.2866 35.2126C27.2866 34.243 26.5006 33.457 25.531 33.457C24.5614 33.457 23.7754 34.243 23.7754 35.2126C23.7754 36.1822 24.5614 36.9682 25.531 36.9682Z" fill="#000C34"/>
</svg>
