<svg width="102" height="92" viewBox="0 0 102 92" fill="none" xmlns="http://www.w3.org/2000/svg">
<path d="M38.0273 8.5049C43.8615 -1.59864 58.4436 -1.59864 64.2778 8.5049L81.7918 38.8405L99.3058 69.1761C105.14 79.2797 97.8479 91.9102 86.1817 91.9102H16.1234C4.45727 91.9102 -2.83493 79.2797 2.99928 69.1761L20.5133 38.8405L38.0273 8.5049Z" fill="#9ACAD3"/>
<path d="M45.8063 70.9886C46.967 70.9886 47.908 70.0477 47.908 68.887C47.908 67.7262 46.967 66.7853 45.8063 66.7853C44.6455 66.7853 43.7046 67.7262 43.7046 68.887C43.7046 70.0477 44.6455 70.9886 45.8063 70.9886Z" fill="#000C34"/>
<path d="M14.9186 75.4084C16.0793 75.4084 17.0203 74.4675 17.0203 73.3068C17.0203 72.146 16.0793 71.2051 14.9186 71.2051C13.7578 71.2051 12.8169 72.146 12.8169 73.3068C12.8169 74.4675 13.7578 75.4084 14.9186 75.4084Z" fill="#000C34"/>
<path d="M23.5342 80.6919C23.5342 80.6919 24.9217 76.0291 30.9856 75.2535C36.4695 74.5529 39.4969 78.4743 39.4969 78.4743" stroke="#000C34" stroke-width="2.89322" stroke-miterlimit="10" stroke-linecap="round"/>
</svg>
