<svg width="102" height="101" viewBox="0 0 102 101" fill="none" xmlns="http://www.w3.org/2000/svg">
<path d="M51.1519 100.606C78.8799 100.606 101.358 78.1281 101.358 50.4C101.358 22.672 78.8799 0.19397 51.1519 0.19397C23.4238 0.19397 0.945801 22.672 0.945801 50.4C0.945801 78.1281 23.4238 100.606 51.1519 100.606Z" fill="#B9DBB6"/>
<path d="M45.9482 63.6122L48.9757 65.2941L52.0056 63.6122L55.033 65.2941L58.063 63.6122L61.0929 65.2941L64.1253 63.6122" stroke="#000C34" stroke-width="3.19311" stroke-linecap="round" stroke-linejoin="round"/>
<path d="M19.8433 49.4417C19.8433 49.4417 20.0617 52.2783 22.8531 52.3185C25.376 52.3561 25.8253 49.6098 25.8253 49.6098" stroke="#000C34" stroke-width="3.19311" stroke-miterlimit="10" stroke-linecap="round"/>
<path d="M28.1499 40.2313C28.1499 40.2313 28.3683 43.068 31.1598 43.1081C33.6826 43.1458 34.132 40.3995 34.132 40.3995" stroke="#000C34" stroke-width="3.19311" stroke-miterlimit="10" stroke-linecap="round"/>
<path d="M71.1013 58.0118C72.3823 58.0118 73.4208 56.9734 73.4208 55.6923C73.4208 54.4113 72.3823 53.3728 71.1013 53.3728C69.8202 53.3728 68.7817 54.4113 68.7817 55.6923C68.7817 56.9734 69.8202 58.0118 71.1013 58.0118Z" fill="#000C34"/>
<path d="M36.7331 58.0118C38.0141 58.0118 39.0526 56.9734 39.0526 55.6923C39.0526 54.4113 38.0141 53.3728 36.7331 53.3728C35.4521 53.3728 34.4136 54.4113 34.4136 55.6923C34.4136 56.9734 35.4521 58.0118 36.7331 58.0118Z" fill="#000C34"/>
</svg>
