<svg width="102" height="105" viewBox="0 0 102 105" fill="none" xmlns="http://www.w3.org/2000/svg">
<path d="M99.2014 31.5645C95.2229 22.3714 85.841 17.1858 76.3776 18.1148C74.5327 8.7879 66.8592 1.30331 56.9077 0.151231C46.9563 -1.00085 37.7764 4.53386 33.8477 13.1915C24.8489 10.1263 14.5274 13.0288 8.55444 21.0724C2.58146 29.1133 2.78354 39.8337 8.31825 47.5624C1.16433 53.824 -1.481 64.2111 2.49486 73.4068C6.47335 82.5998 15.858 87.7855 25.3187 86.8565C27.1636 96.1834 34.8371 103.668 44.7886 104.82C54.74 105.972 63.9199 100.437 67.8486 91.7797C76.8474 94.8449 87.1689 91.9424 93.1418 83.8989C99.1148 75.8579 98.9127 65.1375 93.378 57.4089C100.532 51.1472 103.177 40.7575 99.1988 31.5645H99.2014Z" fill="#FFDA68"/>
<path d="M70.5802 27.9981C71.9194 27.9981 73.005 26.9124 73.005 25.5732C73.005 24.234 71.9194 23.1483 70.5802 23.1483C69.2409 23.1483 68.1553 24.234 68.1553 25.5732C68.1553 26.9124 69.2409 27.9981 70.5802 27.9981Z" fill="#000C34"/>
<path d="M34.651 25.7252C35.9902 25.7252 37.0758 24.6396 37.0758 23.3004C37.0758 21.9611 35.9902 20.8755 34.651 20.8755C33.3117 20.8755 32.2261 21.9611 32.2261 23.3004C32.2261 24.6396 33.3117 25.7252 34.651 25.7252Z" fill="#000C34"/>
<path d="M61.1408 30.1132C61.1408 30.1132 58.6083 35.1205 51.562 34.7557C45.1928 34.425 42.5605 29.3522 42.5605 29.3522" stroke="#000C34" stroke-width="3.33815" stroke-miterlimit="10" stroke-linecap="round"/>
</svg>
